<?xml version="1.0" encoding="utf-8"?>
<!-- Generator: Adobe Illustrator 22.1.0, SVG Export Plug-In . SVG Version: 6.00 Build 0)  -->
<svg version="1.1" id="Layer_1" xmlns="http://www.w3.org/2000/svg" xmlns:xlink="http://www.w3.org/1999/xlink" x="0px" y="0px"
	 viewBox="0 0 91 78.3" style="enable-background:new 0 0 91 78.3;" xml:space="preserve">
<style type="text/css">
	.st0{fill:none;stroke:#FFFFFF;stroke-width:4.0666;stroke-miterlimit:10;}
	.st1{fill:#FFFFFF;stroke:#002C6C;stroke-width:4.0854;stroke-miterlimit:10;}
	.st2{fill:#002D6C;}
</style>
<g>
	<g>
		<path class="st0" d="M51.1,12.8V7.2c0-1.7,1.5-3,3.3-3H81c1.8,0,3.3,1.3,3.3,3v5.6c0,0.6-0.5,1-1.1,1h-31
			C51.6,13.8,51.1,13.4,51.1,12.8z"/>
	</g>
	<path class="st0" d="M81.1,13.8v5c0,1.4,0.8,2.7,2.1,3.5c2,1.1,3.1,3.1,3.1,5.2V61c0,2-1.8,3.6-4,3.6H67.7H53c-2.2,0-4-1.6-4-3.6
		V27.4c0-2.1,1.2-4.1,3.1-5.2c1.3-0.8,2.1-2,2.1-3.5v-5"/>
</g>
<g>
	<circle class="st1" cx="34.7" cy="41" r="31"/>
	<g>
		<path class="st2" d="M38.6,19.9v17.3h16.6v7.5H38.6v17.5h-7.8V44.7H14.2v-7.5h16.6V19.9H38.6z"/>
	</g>
</g>
</svg>
